# Blender v2.76 (sub 0) OBJ File: ''
# www.blender.org
mtllib tree68c.mtl
o Cube_Cube.011
v -0.286933 -0.001167 0.262548
v -0.229961 1.669793 0.128990
v -0.286933 -0.001167 -0.253301
v -0.229961 1.669793 -0.128086
v 0.228916 -0.001167 0.262548
v 0.027115 1.669793 0.128990
v 0.228916 -0.001167 -0.253301
v 0.027115 1.669793 -0.128086
vn -0.999400 0.034100 0.000000
vn 0.000000 0.074700 -0.997200
vn 0.992800 0.119900 0.000000
vn 0.000000 0.079700 0.996800
vn 0.000000 -1.000000 0.000000
vn 0.000000 1.000000 0.000000
usemtl None
s off
f 2//1 4//1 3//1 1//1
f 4//2 8//2 7//2 3//2
f 8//3 6//3 5//3 7//3
f 6//4 2//4 1//4 5//4
f 1//5 3//5 7//5 5//5
f 6//6 8//6 4//6 2//6
