# Blender v2.76 (sub 0) OBJ File: ''
# www.blender.org
mtllib tree63c.mtl
o Cube_Cube.011
v -0.250262 -0.004136 0.224854
v -0.206966 0.782237 0.171584
v -0.250262 -0.004136 -0.195876
v -0.206966 0.782237 0.080601
v 0.000978 -0.004136 0.224854
v -0.115984 0.782237 0.171584
v 0.000978 -0.004136 -0.195876
v -0.115984 0.782237 0.080601
vn -0.998500 0.055000 0.000000
vn 0.000000 0.331700 -0.943400
vn 0.989100 0.147100 0.000000
vn 0.000000 0.067600 0.997700
vn 0.000000 -1.000000 0.000000
vn 0.000000 1.000000 0.000000
usemtl None
s off
f 2//1 4//1 3//1 1//1
f 4//2 8//2 7//2 3//2
f 8//3 6//3 5//3 7//3
f 6//4 2//4 1//4 5//4
f 1//5 3//5 7//5 5//5
f 6//6 8//6 4//6 2//6
