# Blender v2.76 (sub 0) OBJ File: ''
# www.blender.org
mtllib tree5C.mtl
o Cone.004
v -0.390186 0.007109 0.027022
v -0.110459 4.156298 -0.126290
v -0.270417 0.007109 -0.262484
v 0.006134 0.007109 -0.343568
v 0.274884 0.007109 -0.241728
v -0.262616 0.007109 0.355468
v 0.006134 0.007109 0.455845
v 0.303020 0.007109 0.331132
v 0.412205 0.007109 0.027022
vn -0.923000 0.048100 -0.381800
vn 0.353700 0.058800 -0.933500
vn -0.929500 0.076000 0.361000
vn -0.347300 0.120700 0.929900
vn 0.383500 0.138900 0.913000
vn 0.933200 0.129900 0.335000
vn -0.281100 0.042300 -0.958700
vn 0.886500 0.094900 -0.453000
vn -0.000000 -1.000000 -0.000000
usemtl None.008
s 1
f 1//1 2//1 3//1
f 4//2 2//2 5//2
f 6//3 2//3 1//3
f 7//4 2//4 6//4
f 8//5 2//5 7//5
f 9//6 2//6 8//6
f 3//7 2//7 4//7
f 5//8 2//8 9//8
f 4//9 5//9 9//9 8//9 7//9 6//9 1//9 3//9
